<?xml version="1.0" encoding="utf-8"?>
<!-- Generator: Adobe Illustrator 19.0.0, SVG Export Plug-In . SVG Version: 6.00 Build 0)  -->
<svg version="1.1" id="Layer_1" xmlns="http://www.w3.org/2000/svg" xmlns:xlink="http://www.w3.org/1999/xlink" x="0px" y="0px"
	 viewBox="0 0 292.3 116.2" style="enable-background:new 0 0 292.3 116.2;" xml:space="preserve">
<style type="text/css">
	.st0{fill:#FFFFFF;}
</style>
<g id="XMLID_545_">
	<path id="XMLID_25_" class="st0" d="M51.7,33.5l1.2-0.6l1.3-0.6l1.3-0.5l1.3-0.5c0.9-0.3,1.8-0.5,2.7-0.7c0.9-0.2,1.8-0.4,2.8-0.5
		c0.9-0.1,1.9-0.2,2.8-0.3c0.9,0,1.9-0.1,2.8,0c0.9,0,1.9,0.1,2.8,0.2c0.9,0.1,1.9,0.2,2.8,0.4c0.9,0.2,1.8,0.4,2.8,0.6
		c0.9,0.2,1.8,0.5,2.7,0.8c0.9,0.3,1.8,0.7,2.6,1.1c0.9,0.4,1.7,0.8,2.6,1.3c0.8,0.5,1.7,1,2.5,1.5c0.8,0.5,1.6,1.1,2.3,1.7l1.1,0.9
		l1.1,1l1,1l1,1.1l-0.9-0.5c3.5,0.1,7.1-1.3,9.1-3.7c1-1.2,1.5-2.7,1.4-4.2c-0.1-0.8-0.3-1.6-0.6-2.3c-0.3-0.8-0.7-1.5-1.2-2.2
		c-1-1.5-2.2-2.8-3.6-4c-0.7-0.6-1.4-1.2-2.1-1.8l-1.1-0.8l-0.3-0.2l-0.1-0.1l-0.1-0.1c-0.2-0.2,0,0-0.2-0.2
		c-0.5-0.5-0.6-1.1-0.6-1.7c0.1-0.6,0.5-1.1,1.1-1.4c2.2-0.8,4.3-1,6.5-0.8c2.1,0.3,4.1,1,6,1.9c3.7,1.9,6.7,4.7,9.2,7.7
		c0.6,0.8,1.2,1.6,1.8,2.4c0.3,0.4,0.5,0.8,0.8,1.3l0.4,0.6L119,32c0.9,1.9,1.5,3.9,1.9,5.9c0.3,2,0.5,4.1,0.2,6.2
		c-0.2,2.1-0.8,4.1-1.9,6c-1,1.9-2.7,3.5-4.5,4.6c-1.9,1.1-3.9,1.7-6,2c-1,0.1-2.1,0.2-3.1,0.2l-0.6,0l-0.1,0c0,0-0.1,0,0,0
		c0.1,0,0.2,0,0.2,0c0.1,0,0.1-0.1,0.2-0.1c0.2-0.2,0.1-0.2,0.1-0.3c0,0,0,0,0,0c0,0,0-0.1,0,0l0.2,0.3l0.4,0.6l0.9,1.2l1.7,2.3
		c2.3,3.1,4.6,6.5,5.9,10.3c0.7,1.9,1.2,3.9,1.5,5.8c0.4,2,0.6,4,0.4,6.1c-0.2,2.1-0.9,4.3-2.2,6.1c-1.3,1.9-3.1,3.1-4.9,4.1
		c-3.6,2-7.6,2.8-11.2,3.8c-1.9,0.5-3.8,0.9-5.7,1.3c-1.9,0.3-3.8,0.7-5.7,1c-7.7,1.2-15.4,1.7-23.2,1.6c-7.8-0.1-15.5-1-23.1-2.4
		c-3.8-0.7-7.6-1.7-11.3-2.7c-1.9-0.5-3.7-1.1-5.6-1.7c-1.9-0.6-3.7-1.4-5.5-2.3c-1.8-0.9-3.5-2-5.1-3.4c-1.6-1.4-3-3.1-3.8-5.2
		c-0.2-0.5-0.4-1-0.5-1.6c-0.1-0.3-0.1-0.5-0.2-0.8c0-0.2-0.1-0.5-0.1-0.8c-0.1-1.1,0-2.2,0.1-3.2c0.3-2.1,1-4,1.7-5.9
		c1.5-3.8,4-7.2,7.1-9.8c1.5-1.3,3.1-2.5,4.8-3.6l1.2-0.8c-0.1,0.1,0.2-0.2,0.1-0.1c0,0,0,0,0,0c0,0,0,0,0,0c0,0,0,0,0,0
		c-0.3-0.3-0.7-0.7-1-0.9c-1.3-1.1-2.9-2-4.5-2.9c-1.7-0.9-3.4-1.7-5.2-2.9c-0.9-0.6-1.7-1.3-2.4-2c-0.4-0.4-0.7-0.8-1.1-1.2
		c-0.3-0.4-0.6-0.7-0.9-1.2C7.1,43.8,6.2,42,5.5,40c-0.7-1.9-1.1-4-1.2-6.1c-0.1-2.1,0.2-4.2,0.9-6.2c0.2-0.6,0.3-0.9,0.6-1.4
		c0.2-0.5,0.5-1,0.7-1.4c0.5-0.9,1.1-1.8,1.8-2.5c1.4-1.6,2.9-2.9,4.6-4c0.8-0.6,1.7-1.1,2.5-1.6l0.3-0.2l0.2-0.1l0.1,0
		c0.1-0.1,0.2-0.1,0.4-0.1c0.1,0,0.2,0,0.3,0c0.8,0,1.5,0.5,1.8,1.2c0.1,0.4,0.1,0.8,0,1.1c0,0.1-0.1,0.2-0.1,0.2c0,0,0,0,0,0.1
		L18.3,19L18,19.6c-0.6,1.6-1,3.4-0.9,5.2c0,3.6,1.4,7.2,3.9,9.8c5.1,5.2,14.9,5.2,20.3-0.4c-2.5,3-6.3,4.7-10.2,5
		c-3.9,0.3-8.1-0.8-11.1-3.6c-3-2.7-4.8-6.7-5-10.8c-0.1-2,0.1-4.1,0.8-6.1l0.2-0.7l0.1-0.2l0-0.1c0,0,0,0.1,0,0.1
		c0,0.1,0,0.3,0,0.4c0.1,0.2,0.3,0.4,0.6,0.4c0,0,0.1,0,0.1,0c0.1,0,0.1,0,0.2-0.1l-0.1,0c0.2-0.1,0,0,0,0l-0.3,0.2
		c-0.8,0.5-1.5,1-2.2,1.6c-2.9,2.3-5.3,5.1-6.5,8.3c-0.6,1.6-0.8,3.4-0.8,5.1c0.1,1.7,0.4,3.5,1,5.2c0.6,1.7,1.5,3.3,2.4,4.7
		c0.2,0.3,0.5,0.7,0.8,1.1c0.2,0.3,0.5,0.6,0.8,0.9c0.6,0.6,1.3,1.1,2,1.6c2.9,2,6.7,3.2,10,6c0.4,0.3,0.7,0.7,1.1,1
		c0.7,0.7,1,1.7,0.9,2.6c-0.1,0.5-0.2,0.9-0.5,1.3c-0.1,0.2-0.3,0.4-0.5,0.6c-0.3,0.3-0.2,0.2-0.5,0.4L23.7,60
		c-1.6,1-3.1,2.1-4.4,3.3c-2.8,2.4-4.9,5.3-6.2,8.7c-1.4,3.4-2.3,7-1,10.1c1.2,3.1,4.2,5.3,7.4,7c3.2,1.7,6.9,2.7,10.6,3.8
		c3.7,1,7.3,2,11.1,2.6c7.4,1.4,15,2.3,22.6,2.4c7.6,0.1,15.2-0.4,22.7-1.5c1.9-0.3,3.7-0.7,5.6-1c1.8-0.4,3.7-0.8,5.5-1.2l2.8-0.7
		l1.4-0.4l1.3-0.4c1.8-0.5,3.5-1.2,5-2c1.5-0.8,2.9-1.9,3.8-3.2c1-1.4,1.5-2.9,1.6-4.6c0.2-1.7,0-3.5-0.3-5.3
		c-0.3-1.8-0.8-3.6-1.4-5.3c-1.2-3.4-3.3-6.5-5.5-9.6l-1.7-2.3l-0.9-1.1l-0.4-0.6l-0.2-0.3c0,0-0.1-0.2-0.2-0.3
		c-0.1-0.1-0.1-0.2-0.2-0.4c-0.4-1-0.2-2.2,0.6-3c0.2-0.2,0.5-0.4,0.8-0.5c0.1-0.1,0.4-0.1,0.6-0.1c0.1,0,0.1,0,0.2,0l0.1,0l0.8,0
		c0.9,0,1.8-0.1,2.7-0.2c1.7-0.2,3.4-0.7,4.9-1.6c1.4-0.9,2.6-2.1,3.4-3.5c1.7-2.9,1.9-6.7,1.3-10.2c-0.3-1.8-0.8-3.5-1.6-5.1
		l-0.3-0.5l-0.4-0.6c-0.2-0.3-0.5-0.8-0.7-1.1c-0.5-0.8-1.1-1.5-1.7-2.2c-2.3-2.8-5.1-5.3-8.3-7c-1.6-0.8-3.2-1.4-4.9-1.6
		c-1.7-0.2-3.4,0-4.9,0.5c0.3-0.1,0.6-0.5,0.6-0.8c0-0.4,0-0.7-0.4-1c-0.2-0.1,0.1,0.1-0.1-0.1l0.1,0.1l0.1,0.1l0.3,0.2l1.2,0.9
		c0.8,0.6,1.6,1.2,2.3,1.9c1.5,1.3,2.9,2.8,4.1,4.6c0.6,0.9,1.1,1.8,1.5,2.8c0.4,1,0.7,2.1,0.8,3.2c0.2,2.3-0.6,4.7-2.1,6.4
		c-1.5,1.7-3.4,2.9-5.4,3.6c-2,0.7-4.1,0.9-6.2,0.8l0,0c-0.4,0-0.7-0.2-0.9-0.5l-0.8-1l-0.9-1L88.5,40l-1-0.9
		c-0.7-0.6-1.4-1.1-2.1-1.7c-0.7-0.5-1.5-1-2.2-1.5c-0.8-0.5-1.5-0.9-2.3-1.3c-0.8-0.4-1.6-0.8-2.5-1.1c-0.8-0.3-1.7-0.7-2.5-0.9
		c-0.9-0.3-1.7-0.5-2.6-0.7c-0.9-0.2-1.8-0.4-2.7-0.5c-0.9-0.1-1.8-0.3-2.7-0.3c-0.9-0.1-1.8-0.1-2.7-0.1c-0.9,0-1.8,0-2.7,0.1
		c-0.9,0.1-1.8,0.2-2.7,0.3c-0.9,0.1-1.8,0.3-2.7,0.5L55.6,32l-1.3,0.4L53,32.9L51.7,33.5z"/>
</g>
<g id="XMLID_544_">
	<path id="XMLID_19_" class="st0" d="M145.1,47.2c-0.8-0.3-1.4-0.7-2-1.2c-0.5-0.4-1-1-1.4-1.7c-0.4-0.7-0.8-1.5-1.1-2.3
		c-0.3-0.7-0.5-1.5-0.7-2.5c-0.2-1-0.4-1.9-0.5-2.8c-0.1-0.7-0.2-1.6-0.3-2.7s-0.1-1.9-0.1-2.5c0-0.4,0-1.1,0-2.2v-1.7
		c0-0.5,0-1.2,0-1.9c0-1.6,0.1-3.2,0.2-5c0.1-1.7,0.4-3.4,0.8-5.1c0.2-0.9,0.5-1.7,0.8-2.4s0.6-1.3,1.1-2c0.4-0.6,0.9-1.2,1.4-1.6
		c0.5-0.4,1.1-0.8,1.9-1c0.7-0.2,1.5-0.4,2.3-0.4c1.4,0,2,0.5,2,1.4c0,0.3-0.1,0.6-0.4,0.8c-0.3,0.2-0.6,0.3-0.9,0.3
		c-0.1,0-0.3,0-0.7-0.1c-0.4-0.1-0.6-0.1-0.7-0.1c-0.6,0-1.2,0.2-1.7,0.6c-0.5,0.4-0.9,0.9-1.2,1.6c-0.4,0.8-0.7,1.6-0.9,2.4
		c-0.3,0.8-0.4,1.7-0.6,2.8c-0.2,1.3-0.3,2.4-0.4,3.2c-0.1,0.8-0.1,1.7-0.2,2.8c-0.1,1.5-0.1,3-0.1,4.6v1.3c0,0.4,0,1,0,1.7
		c0,1,0,1.8,0,2.5c0,0.7,0.1,1.5,0.2,2.4c0.1,1,0.2,1.9,0.4,2.6c0.2,0.8,0.4,1.5,0.7,2.3c0.3,0.8,0.6,1.5,1.1,2
		c0.4,0.5,0.9,0.9,1.5,1.2c0.6,0.3,1.3,0.5,2,0.5c1.5,0,2.7-0.7,3.6-2.1c0-1.1-0.1-2.2-0.2-3.3c-0.1-1.1-0.3-1.9-0.6-2.3l-0.8,0.1
		c-0.4,0.1-0.8,0.1-1.1,0.1c-1.1,0-1.7-0.5-1.7-1.4c0-0.3,0.2-0.6,0.5-0.8c0.3-0.2,0.8-0.4,1.3-0.5c1-0.2,1.8-0.3,2.4-0.3
		c0.7,0,1.2,0.2,1.5,0.7c0.4,0.5,0.6,1.1,0.6,1.9c0,1,0.2,2.4,0.5,4.4c0.3,2,0.5,3.4,0.5,4.4c0,0.4-0.1,0.7-0.3,1
		c-0.2,0.3-0.5,0.4-0.9,0.4c-0.8,0-1.4-0.3-1.6-1v0c-0.1,0-0.5,0.2-1.1,0.6c-0.5,0.3-1,0.5-1.4,0.6c-0.4,0.1-0.8,0.2-1.1,0.2
		C146.7,47.6,145.8,47.4,145.1,47.2z"/>
	<path id="XMLID_21_" class="st0" d="M169.8,46.5c-0.8-0.4-1.5-1.1-2.1-2c-0.6-0.9-1.2-1.9-1.6-2.9c-0.4-1.1-0.8-2.3-1.1-3.7
		c-0.3-1.5-0.5-3-0.7-4.4c-0.2-1.4-0.3-2.9-0.4-4.5c-0.2-2.9-0.2-6-0.2-9.4c0-1.5,0-2.9,0-4c0-1.1,0-2.4,0-3.6
		c-0.2-0.3-0.4-0.6-0.4-1c0-0.4,0.1-0.7,0.4-1.1c0.3-0.3,0.6-0.5,1-0.5c1.2,0,1.8,1.2,1.8,3.5c0,2.1,0.1,4.9,0.2,8.5
		c0.1,3.8,0.2,6.6,0.2,8.5c0.2,0.4,0.3,1.2,0.5,2.5c0.1,1.3,0.2,2.3,0.2,3.2c0,0.7,0.1,1.6,0.4,2.7s0.6,2.1,1,3.2
		c0.4,1.1,1,2.1,1.7,2.8s1.4,1.1,2.2,1.1c0.5,0,0.8-0.1,1.1-0.4c0.3-0.3,0.5-0.7,0.6-1.3c0.1-0.5,0.2-1,0.2-1.4c0-0.4,0-0.8,0-1.3
		v-9.6c0-1.1-0.1-2.7-0.3-4.6c-0.2-2-0.3-3.5-0.3-4.6v-0.3l0-1.4l0-1.4c0-1.1-0.1-2.4-0.2-4.2c-0.1-2-0.2-3.4-0.2-4.2
		c0-0.4,0.2-0.7,0.6-1c0.4-0.3,0.8-0.4,1.3-0.4l1.2,1.1v0.8c0,0.4-0.1,0.9-0.2,1.5c-0.1,0.7-0.2,1.2-0.2,1.5c0,2.9,0.2,7,0.5,12.3
		c0.3,5.5,0.4,9.7,0.4,12.8c0,0.9,0,1.7-0.1,2.3c-0.1,0.6-0.2,1.3-0.4,2c-0.2,0.8-0.5,1.4-0.8,1.8c-0.3,0.5-0.8,0.9-1.4,1.2
		c-0.6,0.3-1.4,0.5-2.2,0.5C171.5,47.2,170.6,47,169.8,46.5z"/>
	<path id="XMLID_23_" class="st0" d="M188.6,44.8c0-0.8,0.5-1.2,1.5-1.2c0.2,0,0.4,0,0.6,0l0.5,0c0.3,0,0.4-0.1,0.6-0.3
		c0.1-0.2,0.2-0.5,0.2-0.9c0-2.6-0.2-6.4-0.5-11.3c-0.3-4.9-0.5-8.7-0.5-11.3l0-2.5l0-2.5c0-1,0-1.9-0.1-2.7
		c-0.4,0.1-0.8,0.2-1.1,0.2c-0.8,0-1.1-0.4-1.1-1.2c0-0.4,0.2-0.7,0.7-1c0.5-0.3,1.1-0.5,1.9-0.7c1.3-0.2,2.5-0.4,3.5-0.4
		c0.4,0,0.7,0.1,1,0.4s0.4,0.6,0.4,0.9c0,0.4-0.1,0.7-0.3,0.9s-0.5,0.4-0.8,0.4c-0.2,0-0.4,0-0.5,0h-0.4c-0.3,0-0.6,0.1-0.7,0.2
		s-0.2,0.4-0.2,0.8c0,3.3,0.2,8.1,0.6,14.3c0.4,6.2,0.6,11,0.6,14.3v1.9c0.3,0,0.7-0.1,1-0.1c1.4,0,2,0.6,2,1.7v0.3l-1.2,0.8l-1.3,0
		c-0.8,0-1.5,0.1-2,0.1C190,46.2,188.6,45.7,188.6,44.8z"/>
	<path id="XMLID_29_" class="st0" d="M209.6,46.4c-0.3-0.3-0.5-0.7-0.5-1.1c0-0.3,0.1-0.7,0.2-1.1c0.1-0.5,0.1-0.8,0.1-1.1
		c0-3.5-0.2-9.1-0.5-16.7c-0.3-7.4-0.5-13-0.5-16.7c0-0.3,0.1-0.5,0.3-0.7s0.5-0.3,0.8-0.3c0.4,0,0.7,0.1,1,0.4
		c0.3,0.3,0.4,0.6,0.4,1c0,1.8,0.1,4.7,0.3,8.8c0.2,3.7,0.2,6.7,0.2,8.8l0,0.6c0,0.2,0,0.4,0,0.6c0,0.2,0,0.3,0,0.4v0.2
		c0.1,3,0.2,7.3,0.2,12.8v1.2h3.7c0.7,0.5,1.1,1,1.1,1.5c0,0.4-0.1,0.7-0.4,1c-0.2,0.3-0.5,0.4-0.9,0.4c-0.2,0-0.3,0-0.5-0.1
		l-0.2-0.1c-0.2,0.1-0.6,0.1-0.9,0.1l-0.8,0c-0.2,0-0.5,0-0.8,0c-0.3,0.4-0.8,0.6-1.4,0.6C210.3,46.9,209.9,46.7,209.6,46.4z"/>
	<path id="XMLID_31_" class="st0" d="M229.4,45.9c-0.3-0.5-0.4-1.1-0.4-1.7c0-0.7,0.1-2.1,0.2-3.9c0.1-1.9,0.2-3.2,0.2-3.9
		c0-1.6-0.1-4.1-0.3-7.6c-0.2-3.5-0.3-6.1-0.3-7.6l0-1.9c0-0.7,0-1.5,0-2.4c0-2.4-0.2-3.9-0.5-4.6l-1.3,0.1
		c-0.7,0.1-1.1,0.1-1.4,0.1c-0.4,0-0.8-0.1-1.1-0.4c-0.3-0.3-0.5-0.6-0.5-1s0.4-0.7,1.2-1c1.2-0.4,3.1-0.7,5.8-0.9
		c0.8,0,1.5-0.1,2-0.1c0.4,0,0.8,0.1,1.1,0.4c0.3,0.3,0.5,0.6,0.5,1s-0.1,0.7-0.4,0.9c-0.3,0.2-0.6,0.4-1.1,0.4l-0.9,0l-0.9,0
		c-0.3,0-0.4,0-0.5,0c0.2,2,0.3,4,0.3,6l0,3.1l0,3.2c0,1.3,0.1,3.2,0.2,5.6c0.1,2.5,0.2,4.3,0.2,5.6c0,1,0.1,2.5,0.2,4.4
		c0.1,2.1,0.2,3.5,0.2,4.4c0,1.6-0.5,2.4-1.4,2.4C230.1,46.6,229.7,46.4,229.4,45.9z"/>
	<path id="XMLID_33_" class="st0" d="M248.5,46.6c-0.2-0.2-0.4-0.5-0.4-0.8c0-0.8,0-2.4,0.1-4.7c0.1-2.3,0.1-3.9,0.1-4.7
		c0-1-0.2-2.4-0.5-4.3c-0.3-1.9-0.5-3.3-0.5-4.2c0-1.2-0.2-2.7-0.6-4.3c-0.4-1.6-0.8-3.1-1.3-4.6c-0.5-1.4-1-2.9-1.3-4.5
		c-0.4-1.6-0.6-3-0.6-4.2c0-0.2,0.1-0.4,0.4-0.6c0.3-0.2,0.6-0.3,0.8-0.3c0.3,0,0.7,0.4,1,1.1c0.3,0.7,0.6,1.5,0.9,2.6
		c0.3,1,0.6,2.3,0.9,3.8l0.7,3.4c0.2,1.2,0.4,1.9,0.5,2.1c0.1-0.2,0.1-0.9,0.2-2.1c0.2-2.7,0.5-4.9,0.8-6.7c0.2-1.2,0.5-2.1,0.8-2.8
		c0.3-0.7,0.7-1.1,1.2-1.1c0.9,0,1.3,0.2,1.3,0.5c0,1.9-0.4,4.6-1.2,8.2c-0.8,3.6-1.2,6.4-1.2,8.3c0,0.2,0,0.4-0.1,0.8
		c-0.1,0.4-0.1,0.7-0.1,0.9v0.7c0,1.5,0,3.6,0.1,6.5c0.1,3.2,0.1,5.4,0.1,6.5c0,0.3,0,0.7,0.1,1.1c0,0.5,0.1,0.9,0.1,1.1v1.2
		c0,0.4-0.2,0.8-0.5,1c-0.3,0.3-0.7,0.4-1.1,0.4C249,46.9,248.7,46.8,248.5,46.6z"/>
	<path id="XMLID_35_" class="st0" d="M139.5,105.5c-0.5-0.3-0.8-0.6-0.8-1c0-0.4,0.1-0.7,0.3-0.9c0.2-0.2,0.5-0.4,0.8-0.4
		c0.4,0,0.9,0.1,1.5,0.4c0.6,0.3,1,0.4,1.2,0.4c0.6,0,1.2-0.3,1.7-0.8c0.5-0.5,0.9-1.2,1.2-2.1c0.3-0.8,0.5-1.6,0.7-2.4
		c0.2-0.8,0.2-1.5,0.2-2.1c0-1.4-0.2-2.9-0.7-4.4c-0.4-1.5-1-3.1-1.8-4.5l-0.7-1.4c-0.8-1.5-1.4-2.8-1.9-3.8c-0.5-1-0.9-2.1-1.2-3.3
		c-0.5-1.6-0.7-3.1-0.7-4.5c0-1.2,0.2-2.3,0.6-3.3c0.4-1,1-1.9,1.8-2.7c0.8-0.8,1.8-1.1,3-1.1c0.6,0,1.2,0.2,1.7,0.5
		c0.6,0.3,0.9,0.8,1.2,1.3l-0.8,1.1c-0.8,0-1.5-0.2-1.9-0.5c-0.6,0.1-1.1,0.3-1.5,0.8c-0.5,0.5-0.8,1.1-1,1.7
		c-0.2,0.6-0.3,1.3-0.3,1.9c0,1.3,0.2,2.5,0.5,3.8c0.3,1.3,0.8,2.5,1.3,3.6l0.4,0.7c1.5,3,2.6,5.1,3.1,6.1c0.6,1.2,1,2.5,1.3,4
		c0.3,1.5,0.5,2.9,0.5,4.4c0,1-0.1,2.1-0.4,3.1c-0.3,1.1-0.7,2-1.2,3c-0.5,1-1.3,1.7-2.2,2.3c-0.9,0.6-1.9,0.9-2.9,0.9
		C141.3,106.2,140.3,106,139.5,105.5z"/>
	<path id="XMLID_37_" class="st0" d="M161.7,104.9c-0.2-0.3-0.3-0.7-0.3-1.2c0-1,0-3.8,0.1-8.2c0.1-4.4,0.1-7.5,0.1-9.3
		c0-7.7-0.4-13.5-1.3-17.5c0.5-0.7,1.1-1.1,1.9-1.1c1.2,0,2.3,0.3,3.3,0.8c1,0.5,1.8,1.3,2.5,2.2c0.6,0.9,1.1,1.9,1.4,3
		s0.5,2.2,0.5,3.4c0,2.4-0.5,4.6-1.6,6.6c-1.1,1.9-2.6,3.5-4.5,4.5c0,1.4,0.1,3.9,0.2,7.5c0.1,3.6,0.2,6.2,0.2,7.7
		c0,0.6-0.1,1.1-0.4,1.5c-0.3,0.4-0.7,0.6-1.2,0.6C162.2,105.4,161.9,105.2,161.7,104.9z M166.5,81.9c0.6-1.3,0.9-2.8,0.9-4.5v0
		c0-0.9-0.1-1.8-0.3-2.8c-0.1-0.4-0.2-0.8-0.5-1.2s-0.4-0.6-0.4-0.7c-0.2-0.3-0.8-0.8-1.8-1.6l-1.3-0.9c0,1.7,0.1,4.3,0.3,7.8
		c0.2,3.4,0.3,6,0.3,7.8C164.9,84.5,165.9,83.2,166.5,81.9z"/>
	<path id="XMLID_40_" class="st0" d="M183,105.4c-0.2,0-0.5-0.1-0.7-0.2c-0.5-0.2-0.8-0.7-0.8-1.4V75.3c0-0.5-0.1-1.3-0.3-2.5
		c-0.2-1.1-0.3-2-0.3-2.5v-0.2c0.6-0.9,1-1.5,1.2-1.7c0.4,0,1-0.1,1.8-0.2s1.4-0.2,1.8-0.2c0.5,0,1,0.2,1.5,0.5
		c0.5,0.3,0.7,0.7,0.7,1.1c0,1-0.7,1.5-2.2,1.5c-0.3,0-0.5,0-0.7,0c-0.2,0-0.4,0-0.7,0c-0.3,0-0.4,0-0.5,0c0,0.8,0.1,2.1,0.2,4
		c0.1,1.9,0.2,3.3,0.2,4c0,0.5,0,1.5-0.1,2.8c-0.1,1.4-0.1,2.3-0.1,2.8c0,0,0.2-0.1,0.7-0.2c0.6-0.2,1.1-0.3,1.6-0.3
		c0.4,0,0.7,0.1,1,0.4c0.3,0.3,0.4,0.6,0.4,1c0,0.4-0.1,0.8-0.4,1.1c-0.2,0.3-0.6,0.4-0.9,0.4c-0.2,0-0.4,0-0.6,0
		c-0.2,0-0.4,0-0.7,0c-0.5,0-0.8,0.1-1,0.4v15.1l2.7-0.1c1.9,0,2.8,0.4,2.8,1.3v0.2c-0.2,0.4-0.6,0.7-1.1,1c-0.5,0.2-1,0.4-1.5,0.4
		c-0.5,0-1.1,0-1.6,0h-1.5C183.5,105.4,183.2,105.4,183,105.4z"/>
	<path id="XMLID_42_" class="st0" d="M208.9,95.7c-2.1-7.1-4.1-14.3-5.9-21.7v16.1c0,1.6,0.1,3.9,0.4,7c0.2,3.2,0.3,5.5,0.3,7
		c0,0.3-0.2,0.5-0.5,0.7c-0.4,0.2-0.8,0.3-1.2,0.3c-0.7,0-1.1-0.3-1.1-0.8c0-0.1,0-0.6,0.1-1.5c0.1-0.8,0.1-1.5,0.1-2.1
		c0-1.8-0.1-4.6-0.3-8.2c-0.2-3.7-0.3-6-0.3-7v-6.2c0-1.1,0.1-2.6,0.2-4.5c0.1-1.9,0.2-3.3,0.2-4.5v-0.3c0-1.6,0.4-2.4,1.1-2.4
		c0.4,0,1,0.7,1.7,2.1c1.1,2.4,2.4,6.6,4.1,12.6c0.9,3.5,2,8,3.3,13.6l0.8,3.4l0,0.2c0-2.3,0-5.2,0.1-8.5c0.1-3.4,0.1-6.2,0.1-8.5
		V68.1c0.2-0.8,0.7-1.2,1.6-1.2c0.9,0,1.3,0.6,1.3,1.9v0.3c-0.2,0.4-0.3,0.9-0.3,1.4c0,2,0,5-0.1,9c-0.1,3.8-0.2,6.8-0.2,9.1v15
		c0,0.5-0.1,1-0.4,1.5c-0.3,0.5-0.6,0.7-1,0.7C212.3,105.8,210.9,102.5,208.9,95.7z"/>
	<path id="XMLID_44_" class="st0" d="M228,104.8c-0.5-0.3-0.7-0.7-0.7-1.2c0.7-0.7,1.1-2.7,1.1-5.8c0-1.9-0.2-4.6-0.5-8.1
		c-0.3-3.5-0.5-6.2-0.5-8.1c0-0.6,0-1.5,0.1-2.7s0.1-2.1,0.1-2.7c0-0.9-0.2-2.1-0.5-3.5c-0.4-1.5-0.6-2.5-0.6-3.1
		c0-1.1,1.3-1.7,3.8-1.7h0.7c0.9,0,1.8,0.1,2.5,0.4c0.8,0.3,1.5,0.7,2.1,1.2c0.5,0.4,1,1,1.5,1.7c0.5,0.7,0.8,1.4,1.2,2.2
		c0.3,0.7,0.5,1.5,0.7,2.4c0.2,0.9,0.4,1.7,0.5,2.5c0.1,0.6,0.2,1.4,0.2,2.2c0.1,0.9,0.1,1.6,0.1,2.1v1.6v2.3
		c-0.1,0.1-0.1,0.3-0.1,0.4s0,0.4,0.1,0.6l0,0.5c0,1.1-0.2,2.3-0.5,3.7c-0.3,1.4-0.8,2.9-1.4,4.5c-0.7,1.7-1.4,3.2-2.2,4.5
		c-0.8,1.3-1.7,2.3-2.7,3.1c-1.1,0.9-2.2,1.3-3.4,1.3C229,105.2,228.4,105.1,228,104.8z M233.8,99.1c0.9-1.4,1.6-3,2.1-4.7
		c0.9-3.2,1.3-6.5,1.3-9.7c0-1.8-0.2-3.7-0.5-5.8c-0.4-2-1.1-3.9-2.3-5.5c-0.5-0.8-1.2-1.4-2.1-1.8c-0.9-0.4-1.8-0.6-2.9-0.6v0
		c0,3.1,0.2,7.5,0.6,13.3c0.4,5.9,0.6,10.4,0.6,13.4v4.7C231.9,101.6,232.9,100.5,233.8,99.1z"/>
	<path id="XMLID_47_" class="st0" d="M253.7,105.4c-0.2,0-0.5-0.1-0.7-0.2c-0.5-0.2-0.8-0.7-0.8-1.4V75.3c0-0.5-0.1-1.3-0.3-2.5
		c-0.2-1.1-0.3-2-0.3-2.5v-0.2c0.6-0.9,1-1.5,1.2-1.7c0.4,0,1-0.1,1.8-0.2s1.4-0.2,1.8-0.2c0.5,0,1,0.2,1.5,0.5
		c0.5,0.3,0.7,0.7,0.7,1.1c0,1-0.7,1.5-2.2,1.5c-0.3,0-0.5,0-0.7,0c-0.2,0-0.4,0-0.7,0c-0.3,0-0.4,0-0.5,0c0,0.8,0.1,2.1,0.2,4
		c0.1,1.9,0.2,3.3,0.2,4c0,0.5,0,1.5-0.1,2.8c-0.1,1.4-0.1,2.3-0.1,2.8c0,0,0.2-0.1,0.7-0.2c0.6-0.2,1.1-0.3,1.6-0.3
		c0.4,0,0.7,0.1,1,0.4c0.3,0.3,0.4,0.6,0.4,1c0,0.4-0.1,0.8-0.4,1.1c-0.2,0.3-0.6,0.4-0.9,0.4c-0.2,0-0.4,0-0.6,0
		c-0.2,0-0.4,0-0.7,0c-0.5,0-0.8,0.1-1,0.4v15.1l2.7-0.1c1.9,0,2.8,0.4,2.8,1.3v0.2c-0.2,0.4-0.6,0.7-1.1,1c-0.5,0.2-1,0.4-1.5,0.4
		c-0.5,0-1.1,0-1.6,0h-1.5C254.3,105.4,254,105.4,253.7,105.4z"/>
	<path id="XMLID_49_" class="st0" d="M278.9,104.3v-0.2c-0.1-1.7-0.4-3.6-0.9-5.8s-1.2-4.7-2.2-7.7c-0.9-2.7-1.5-4.8-1.8-6.1v19.3
		c0,0.5-0.1,0.9-0.3,1.2s-0.6,0.4-1.1,0.4c-0.4,0-0.7-0.1-0.9-0.4c-0.2-0.3-0.3-0.6-0.3-1v-0.4c0-3.9,0-8.7,0.1-14.4
		c0.1-5.7,0.1-10.5,0.1-14.4v-6c0-0.4,0.1-0.7,0.3-0.8c0.2-0.2,0.5-0.2,1-0.2c0.8,0,1.5,0.2,2.2,0.5c0.7,0.3,1.3,0.8,1.8,1.3
		c0.5,0.5,0.9,1.2,1.2,1.9c0.3,0.7,0.6,1.4,0.7,2.2c0.1,0.7,0.2,1.5,0.2,2.2c0,0.7-0.1,1.6-0.3,2.8c-0.1,0.6-0.4,1.5-0.9,2.7
		l-0.6,1.4l-0.5,1.3c0,1.2,0.2,2.7,0.6,4.5c0.4,1.8,0.8,3.5,1.3,5c0.4,1.4,1,3.2,1.7,5.4l1.4,4.3v0.1c0,0.3,0,0.5,0,0.7
		c0,0.2-0.1,0.4-0.1,0.7c-0.1,0.5-0.5,0.8-1.1,0.8C280,105.6,279.5,105.2,278.9,104.3z M275.6,80.5l0.8-4.2c0-0.3,0-0.5,0-0.6
		c0-1-0.2-2.1-0.6-3.3c-0.2-0.6-0.4-1.1-0.7-1.5c-0.3-0.4-0.6-0.6-0.9-0.7c0,0.8,0,2.4-0.1,4.9c-0.1,2.2-0.1,3.9-0.1,5.1
		c0,0.8,0,1.6,0,2.2C274.5,81.8,275,81.2,275.6,80.5z"/>
</g>
<g id="XMLID_437_">
	<path id="XMLID_10_" class="st0" d="M39.4,55.9c3.9-0.3,7.8-0.5,11.7-0.6c2-0.1,3.9-0.2,5.9-0.2l5.9-0.2c3.9-0.1,7.8-0.5,11.7-0.5
		c3.9-0.1,7.8-0.4,11.7-0.4h0c0.8,0,1.4,0.9,1.4,1.6c0,0.1,0,0.3,0,0.3c-0.2,1.6-0.7,3-1.2,4.3c-0.6,1.3-1.2,2.6-2.1,3.8
		c-0.8,1.2-1.8,2.3-2.8,3.3c-0.5,0.5-1.1,1-1.6,1.4l-1.8,1.2c-0.6,0.4-1.2,0.7-1.9,1.1l-0.9,0.5l-1,0.4c-0.7,0.3-1.3,0.5-2,0.8
		l-2.1,0.5c-1.4,0.4-2.8,0.5-4.1,0.7c-0.7,0.1-1.4,0.1-2.1,0.2l-2.1,0.1c-0.4,0-0.6,0-1.1,0l-1-0.1l-2-0.1c-0.3,0-0.7,0-1-0.1
		l-1-0.2l-2.1-0.4c-0.7-0.1-1.4-0.4-2-0.6c-0.7-0.2-1.4-0.4-2-0.7L48,71.3c-0.6-0.3-1.2-0.7-1.8-1.1c-0.6-0.4-1.1-0.8-1.7-1.3
		l-0.8-0.7c-0.2-0.3-0.5-0.5-0.7-0.8l-0.7-0.8c-0.2-0.3-0.4-0.6-0.6-0.9l-0.6-0.9c-0.2-0.3-0.3-0.6-0.5-0.9c-0.6-1.2-1-2.6-1.3-3.9
		C39.3,58.6,39.2,57.3,39.4,55.9z M39.4,55.9c0,1.3,0.3,2.7,0.7,3.9c0.4,1.3,0.9,2.5,1.6,3.6c0.2,0.3,0.3,0.6,0.5,0.8l0.6,0.8
		c0.2,0.3,0.4,0.5,0.6,0.8l0.7,0.7c0.2,0.2,0.4,0.5,0.7,0.7l0.8,0.6l0.8,0.6c0.2,0.2,0.6,0.3,0.8,0.5c0.6,0.3,1.1,0.7,1.7,0.9
		l1.8,0.7c0.6,0.3,1.2,0.3,1.9,0.5c0.6,0.1,1.2,0.4,1.9,0.4l1.9,0.2l0.9,0.1c0.3,0,0.7,0,1,0l2,0l1,0l0.9-0.1l2-0.1
		c0.7,0,1.3-0.1,1.9-0.2c1.3-0.2,2.6-0.3,3.8-0.8l1.8-0.5l1.8-0.7l0.9-0.4l0.8-0.5c0.5-0.3,1.1-0.6,1.6-0.9l1.5-1.1
		c0.5-0.4,0.9-0.8,1.4-1.3c0.9-0.9,1.7-1.8,2.4-2.9c0.7-1,1.3-2.1,1.8-3.3c0.5-1.1,0.9-2.4,1.1-3.5l1.4,1.6c-3.9,0-7.8-0.1-11.7-0.1
		c-3.9,0-7.8-0.2-11.7-0.3L57,56.8c-2-0.1-3.9-0.1-5.9-0.2C47.2,56.4,43.3,56.2,39.4,55.9z"/>
</g>
<g id="XMLID_497_">
	<path id="XMLID_27_" class="st0" d="M74.2,55.9c0,0,0.1,0,0.4,0c0.3,0,0.7,0.2,1,0.7c0.1,0.3,0.2,0.6,0.2,1c-0.1,0.4-0.2,0.7-0.3,1
		c-0.3,0.7-0.6,1.5-1.2,2.3c-0.5,0.8-1.2,1.6-2,2.3c-0.8,0.7-1.8,1.4-2.9,1.8c-1.1,0.5-2.2,0.9-3.4,1.1c-0.6,0.1-1.2,0.2-1.8,0.3
		c-0.6,0.1-1.2,0.1-1.8,0.1l-0.5,0l-0.5,0l-0.9,0c-0.6,0-1.2-0.1-1.8-0.2c-1.2-0.2-2.4-0.5-3.5-1c-2.2-0.9-4-2.6-4.8-4.3
		c-0.4-0.8-0.7-1.7-0.9-2.4c-0.1-0.4-0.1-0.7-0.1-1c0-0.3,0-0.7,0.2-1c0.3-0.5,0.8-0.7,1-0.8c0.3,0,0.4,0,0.4,0s-0.2,0-0.4,0.1
		c-0.2,0.1-0.6,0.4-0.7,0.8c-0.1,0.2-0.1,0.4,0,0.7c0.1,0.3,0.2,0.6,0.3,0.9c0.3,0.6,0.6,1.3,1.1,2c1,1.4,2.5,2.6,4.5,3.2
		c0.5,0.2,1,0.3,1.5,0.4c0.5,0.1,1.1,0.2,1.6,0.3c0.6,0,1,0.1,1.7,0.1l0.9,0l0.4,0l0.4,0c0.6,0,1.1,0,1.7-0.1c0.6,0,1.1-0.1,1.7-0.2
		c1.1-0.2,2.1-0.5,3.1-0.8c1-0.4,1.9-0.9,2.6-1.4c0.8-0.5,1.4-1.2,2-1.8c0.6-0.6,1-1.3,1.4-1.9c0.2-0.3,0.4-0.7,0.4-0.8
		c0.1-0.2,0.1-0.5,0-0.7c-0.1-0.4-0.5-0.7-0.7-0.8C74.4,55.9,74.2,55.9,74.2,55.9z"/>
</g>
<g id="XMLID_18_">
</g>
<g id="XMLID_52_">
</g>
<g id="XMLID_53_">
</g>
<g id="XMLID_54_">
</g>
<g id="XMLID_55_">
</g>
<g id="XMLID_56_">
</g>
</svg>
