<?xml version="1.0" encoding="utf-8"?>
<!-- Generator: Adobe Illustrator 19.0.0, SVG Export Plug-In . SVG Version: 6.00 Build 0)  -->
<svg version="1.1" id="Layer_1" xmlns="http://www.w3.org/2000/svg" xmlns:xlink="http://www.w3.org/1999/xlink" x="0px" y="0px"
	 viewBox="0 0 121.6 88" style="enable-background:new 0 0 121.6 88;" xml:space="preserve">
<style type="text/css">
	.st0{fill:#98D3B7;}
</style>
<g id="XMLID_545_">
	<path id="XMLID_36_" class="st0" d="M49.6,19.3l1.2-0.6l1.3-0.6l1.3-0.5l1.3-0.5c0.9-0.3,1.8-0.5,2.7-0.7c0.9-0.2,1.8-0.4,2.8-0.5
		c0.9-0.1,1.9-0.2,2.8-0.3c0.9,0,1.9-0.1,2.8,0c0.9,0,1.9,0.1,2.8,0.2c0.9,0.1,1.9,0.2,2.8,0.4c0.9,0.2,1.8,0.4,2.8,0.6
		c0.9,0.2,1.8,0.5,2.7,0.8c0.9,0.3,1.8,0.7,2.6,1.1c0.9,0.4,1.7,0.8,2.6,1.3c0.8,0.5,1.7,1,2.5,1.5c0.8,0.5,1.6,1.1,2.3,1.7L88,24
		l1.1,1l1,1l1,1.1l-0.9-0.5c3.5,0.1,7.1-1.3,9.1-3.7c1-1.2,1.5-2.7,1.4-4.2c-0.1-0.8-0.3-1.6-0.6-2.3c-0.3-0.8-0.7-1.5-1.2-2.2
		c-1-1.5-2.2-2.8-3.6-4c-0.7-0.6-1.4-1.2-2.1-1.8l-1.1-0.8l-0.3-0.2l-0.1-0.1l-0.1-0.1c-0.2-0.2,0,0-0.2-0.2
		c-0.5-0.5-0.6-1.1-0.6-1.7c0.1-0.6,0.5-1.1,1.1-1.4c2.2-0.8,4.3-1,6.5-0.8c2.1,0.3,4.1,1,6,1.9c3.7,1.9,6.7,4.7,9.2,7.7
		c0.6,0.8,1.2,1.6,1.8,2.4c0.3,0.4,0.5,0.8,0.8,1.3l0.4,0.6l0.4,0.7c0.9,1.9,1.5,3.9,1.9,5.9c0.3,2,0.5,4.1,0.2,6.2
		c-0.2,2.1-0.8,4.1-1.9,6c-1,1.9-2.7,3.5-4.5,4.6c-1.9,1.1-3.9,1.7-6,2c-1,0.1-2.1,0.2-3.1,0.2l-0.6,0l-0.1,0c0,0-0.1,0,0,0
		c0.1,0,0.2,0,0.2,0c0.1,0,0.1-0.1,0.2-0.1c0.2-0.2,0.1-0.2,0.1-0.3c0,0,0,0,0,0c0,0,0-0.1,0,0l0.2,0.3l0.4,0.6l0.9,1.2l1.7,2.3
		c2.3,3.1,4.6,6.5,5.9,10.3c0.7,1.9,1.2,3.9,1.5,5.8c0.4,2,0.6,4,0.4,6.1c-0.2,2.1-0.9,4.3-2.2,6.1c-1.3,1.9-3.1,3.1-4.9,4.1
		c-3.6,2-7.6,2.8-11.2,3.8c-1.9,0.5-3.8,0.9-5.7,1.3c-1.9,0.3-3.8,0.7-5.7,1c-7.7,1.2-15.4,1.7-23.2,1.6c-7.8-0.1-15.5-1-23.1-2.4
		c-3.8-0.7-7.6-1.7-11.3-2.7c-1.9-0.5-3.7-1.1-5.6-1.7c-1.9-0.6-3.7-1.4-5.5-2.3c-1.8-0.9-3.5-2-5.1-3.4c-1.6-1.4-3-3.1-3.8-5.2
		c-0.2-0.5-0.4-1-0.5-1.6c-0.1-0.3-0.1-0.5-0.2-0.8c0-0.2-0.1-0.5-0.1-0.8c-0.1-1.1,0-2.2,0.1-3.2c0.3-2.1,1-4,1.7-5.9
		c1.5-3.8,4-7.2,7.1-9.8c1.5-1.3,3.1-2.5,4.8-3.6l1.2-0.8c-0.1,0.1,0.2-0.2,0.1-0.1c0,0,0,0,0,0c0,0,0,0,0,0c0,0,0,0,0,0
		c-0.3-0.3-0.7-0.7-1-0.9c-1.3-1.1-2.9-2-4.5-2.9c-1.7-0.9-3.4-1.7-5.2-2.9c-0.9-0.6-1.7-1.3-2.4-2c-0.4-0.4-0.7-0.8-1.1-1.2
		c-0.3-0.4-0.6-0.7-0.9-1.2c-1.2-1.7-2.1-3.5-2.8-5.5c-0.7-1.9-1.1-4-1.2-6.1c-0.1-2.1,0.2-4.2,0.9-6.2c0.2-0.6,0.3-0.9,0.6-1.4
		c0.2-0.5,0.5-1,0.7-1.4c0.5-0.9,1.1-1.8,1.8-2.5c1.4-1.6,2.9-2.9,4.6-4c0.8-0.6,1.7-1.1,2.5-1.6l0.3-0.2l0.2-0.1l0.1,0
		C14,2.1,14.1,2.1,14.2,2c0.1,0,0.2,0,0.3,0c0.8,0,1.5,0.5,1.8,1.2c0.1,0.4,0.1,0.8,0,1.1c0,0.1-0.1,0.2-0.1,0.2c0,0,0,0,0,0.1
		l-0.1,0.2l-0.3,0.7c-0.6,1.6-1,3.4-0.9,5.2c0,3.6,1.4,7.2,3.9,9.8c5.1,5.2,14.9,5.2,20.3-0.4c-2.5,3-6.3,4.7-10.2,5
		c-3.9,0.3-8.1-0.8-11.1-3.6c-3-2.7-4.8-6.7-5-10.8c-0.1-2,0.1-4.1,0.8-6.1l0.2-0.7L14,3.7l0-0.1c0,0,0,0.1,0,0.1c0,0.1,0,0.3,0,0.4
		c0.1,0.2,0.3,0.4,0.6,0.4c0,0,0.1,0,0.1,0c0.1,0,0.1,0,0.2-0.1l-0.1,0c0.2-0.1,0,0,0,0l-0.3,0.2c-0.8,0.5-1.5,1-2.2,1.6
		c-2.9,2.3-5.3,5.1-6.5,8.3c-0.6,1.6-0.8,3.4-0.8,5.1c0.1,1.7,0.4,3.5,1,5.2c0.6,1.7,1.5,3.3,2.4,4.7c0.2,0.3,0.5,0.7,0.8,1.1
		c0.2,0.3,0.5,0.6,0.8,0.9c0.6,0.6,1.3,1.1,2,1.6c2.9,2,6.7,3.2,10,6c0.4,0.3,0.7,0.7,1.1,1c0.7,0.7,1,1.7,0.9,2.6
		c-0.1,0.5-0.2,0.9-0.5,1.3c-0.1,0.2-0.3,0.4-0.5,0.6c-0.3,0.3-0.2,0.2-0.5,0.4l-1.2,0.8c-1.6,1-3.1,2.1-4.4,3.3
		c-2.8,2.4-4.9,5.3-6.2,8.7c-1.4,3.4-2.3,7-1,10.1c1.2,3.1,4.2,5.3,7.4,7c3.2,1.7,6.9,2.7,10.6,3.8c3.7,1,7.3,2,11.1,2.6
		c7.4,1.4,15,2.3,22.6,2.4c7.6,0.1,15.2-0.4,22.7-1.5c1.9-0.3,3.7-0.7,5.6-1c1.8-0.4,3.7-0.8,5.5-1.2l2.8-0.7l1.4-0.4l1.3-0.4
		c1.8-0.5,3.5-1.2,5-2c1.5-0.8,2.9-1.9,3.8-3.2c1-1.4,1.5-2.9,1.6-4.6c0.2-1.7,0-3.5-0.3-5.3c-0.3-1.8-0.8-3.6-1.4-5.3
		c-1.2-3.4-3.3-6.5-5.5-9.6l-1.7-2.3l-0.9-1.1l-0.4-0.6l-0.2-0.3c0,0-0.1-0.2-0.2-0.3c-0.1-0.1-0.1-0.2-0.2-0.4
		c-0.4-1-0.2-2.2,0.6-3c0.2-0.2,0.5-0.4,0.8-0.5c0.1-0.1,0.4-0.1,0.6-0.1c0.1,0,0.1,0,0.2,0l0.1,0l0.8,0c0.9,0,1.8-0.1,2.7-0.2
		c1.7-0.2,3.4-0.7,4.9-1.6c1.4-0.9,2.6-2.1,3.4-3.5c1.7-2.9,1.9-6.7,1.3-10.2c-0.3-1.8-0.8-3.5-1.6-5.1l-0.3-0.5l-0.4-0.6
		c-0.2-0.3-0.5-0.8-0.7-1.1c-0.5-0.8-1.1-1.5-1.7-2.2c-2.3-2.8-5.1-5.3-8.3-7c-1.6-0.8-3.2-1.4-4.9-1.6c-1.7-0.2-3.4,0-4.9,0.5
		c0.3-0.1,0.6-0.5,0.6-0.8c0-0.4,0-0.7-0.4-1c-0.2-0.1,0.1,0.1-0.1-0.1l0.1,0.1l0.1,0.1l0.3,0.2L95.1,6c0.8,0.6,1.6,1.2,2.3,1.9
		c1.5,1.3,2.9,2.8,4.1,4.6c0.6,0.9,1.1,1.8,1.5,2.8c0.4,1,0.7,2.1,0.8,3.2c0.2,2.3-0.6,4.7-2.1,6.4c-1.5,1.7-3.4,2.9-5.4,3.6
		c-2,0.7-4.1,0.9-6.2,0.8l0,0c-0.4,0-0.7-0.2-0.9-0.5l-0.8-1l-0.9-1l-0.9-0.9l-1-0.9c-0.7-0.6-1.4-1.1-2.1-1.7
		c-0.7-0.5-1.5-1-2.2-1.5c-0.8-0.5-1.5-0.9-2.3-1.3c-0.8-0.4-1.6-0.8-2.5-1.1c-0.8-0.3-1.7-0.7-2.5-0.9c-0.9-0.3-1.7-0.5-2.6-0.7
		c-0.9-0.2-1.8-0.4-2.7-0.5c-0.9-0.1-1.8-0.3-2.7-0.3c-0.9-0.1-1.8-0.1-2.7-0.1c-0.9,0-1.8,0-2.7,0.1c-0.9,0.1-1.8,0.2-2.7,0.3
		c-0.9,0.1-1.8,0.3-2.7,0.5l-1.3,0.4l-1.3,0.4l-1.3,0.5L49.6,19.3z"/>
</g>
<g id="XMLID_437_">
	<path id="XMLID_38_" class="st0" d="M37.2,41.7c3.9-0.3,7.8-0.5,11.7-0.6c2-0.1,3.9-0.2,5.9-0.2l5.9-0.2c3.9-0.1,7.8-0.5,11.7-0.5
		c3.9-0.1,7.8-0.4,11.7-0.4h0c0.8,0,1.4,0.9,1.4,1.6c0,0.1,0,0.3,0,0.3c-0.2,1.6-0.7,3-1.2,4.3c-0.6,1.3-1.2,2.6-2.1,3.8
		c-0.8,1.2-1.8,2.3-2.8,3.3c-0.5,0.5-1.1,1-1.6,1.4L76.2,56c-0.6,0.4-1.2,0.7-1.9,1.1l-0.9,0.5l-1,0.4c-0.7,0.3-1.3,0.5-2,0.8
		l-2.1,0.5c-1.4,0.4-2.8,0.5-4.1,0.7c-0.7,0.1-1.4,0.1-2.1,0.2l-2.1,0.1c-0.4,0-0.6,0-1.1,0l-1-0.1l-2-0.1c-0.3,0-0.7,0-1-0.1
		l-1-0.2l-2.1-0.4c-0.7-0.1-1.4-0.4-2-0.6c-0.7-0.2-1.4-0.4-2-0.7l-1.9-0.9c-0.6-0.3-1.2-0.7-1.8-1.1c-0.6-0.4-1.1-0.8-1.7-1.3
		L41.6,54c-0.2-0.3-0.5-0.5-0.7-0.8l-0.7-0.8c-0.2-0.3-0.4-0.6-0.6-0.9l-0.6-0.9c-0.2-0.3-0.3-0.6-0.5-0.9c-0.6-1.2-1-2.6-1.3-3.9
		C37.2,44.4,37.1,43.1,37.2,41.7z M37.2,41.7c0,1.3,0.3,2.7,0.7,3.9c0.4,1.3,0.9,2.5,1.6,3.6c0.2,0.3,0.3,0.6,0.5,0.8l0.6,0.8
		c0.2,0.3,0.4,0.5,0.6,0.8l0.7,0.7c0.2,0.2,0.4,0.5,0.7,0.7l0.8,0.6l0.8,0.6c0.2,0.2,0.6,0.3,0.8,0.5c0.6,0.3,1.1,0.7,1.7,0.9
		l1.8,0.7c0.6,0.3,1.2,0.3,1.9,0.5c0.6,0.1,1.2,0.4,1.9,0.4l1.9,0.2l0.9,0.1c0.3,0,0.7,0,1,0l2,0l1,0l0.9-0.1l2-0.1
		c0.7,0,1.3-0.1,1.9-0.2c1.3-0.2,2.6-0.3,3.8-0.8l1.8-0.5l1.8-0.7l0.9-0.4l0.8-0.5c0.5-0.3,1.1-0.6,1.6-0.9l1.5-1.1
		c0.5-0.4,0.9-0.8,1.4-1.3c0.9-0.9,1.7-1.8,2.4-2.9c0.7-1,1.3-2.1,1.8-3.3c0.5-1.1,0.9-2.4,1.1-3.5l1.4,1.6c-3.9,0-7.8-0.1-11.7-0.1
		c-3.9,0-7.8-0.2-11.7-0.3l-5.9-0.2c-2-0.1-3.9-0.1-5.9-0.2C45.1,42.2,41.2,42,37.2,41.7z"/>
</g>
<g id="XMLID_497_">
	<path id="XMLID_14_" class="st0" d="M72.1,41.7c0,0,0.1,0,0.4,0c0.3,0,0.7,0.2,1,0.7c0.1,0.3,0.2,0.6,0.2,1c-0.1,0.4-0.2,0.7-0.3,1
		c-0.3,0.7-0.6,1.5-1.2,2.3c-0.5,0.8-1.2,1.6-2,2.3c-0.8,0.7-1.8,1.4-2.9,1.8c-1.1,0.5-2.2,0.9-3.4,1.1c-0.6,0.1-1.2,0.2-1.8,0.3
		c-0.6,0.1-1.2,0.1-1.8,0.1l-0.5,0l-0.5,0l-0.9,0c-0.6,0-1.2-0.1-1.8-0.2c-1.2-0.2-2.4-0.5-3.5-1c-2.2-0.9-4-2.6-4.8-4.3
		c-0.4-0.8-0.7-1.7-0.9-2.4c-0.1-0.4-0.1-0.7-0.1-1c0-0.3,0-0.7,0.2-1c0.3-0.5,0.8-0.7,1-0.8c0.3,0,0.4,0,0.4,0s-0.2,0-0.4,0.1
		c-0.2,0.1-0.6,0.4-0.7,0.8c-0.1,0.2-0.1,0.4,0,0.7c0.1,0.3,0.2,0.6,0.3,0.9c0.3,0.6,0.6,1.3,1.1,2c1,1.4,2.5,2.6,4.5,3.2
		c0.5,0.2,1,0.3,1.5,0.4c0.5,0.1,1.1,0.2,1.6,0.3c0.6,0,1,0.1,1.7,0.1l0.9,0l0.4,0l0.4,0c0.6,0,1.1,0,1.7-0.1c0.6,0,1.1-0.1,1.7-0.2
		c1.1-0.2,2.1-0.5,3.1-0.8c1-0.4,1.9-0.9,2.6-1.4c0.8-0.5,1.4-1.2,2-1.8c0.6-0.6,1-1.3,1.4-1.9c0.2-0.3,0.4-0.7,0.4-0.8
		c0.1-0.2,0.1-0.5,0-0.7c-0.1-0.4-0.5-0.7-0.7-0.8C72.3,41.7,72.1,41.7,72.1,41.7z"/>
</g>
<g id="XMLID_7_">
</g>
<g id="XMLID_8_">
</g>
<g id="XMLID_9_">
</g>
<g id="XMLID_10_">
</g>
<g id="XMLID_11_">
</g>
<g id="XMLID_12_">
</g>
</svg>
