<?xml version="1.0" encoding="utf-8"?>
<!-- Generator: Adobe Illustrator 19.0.0, SVG Export Plug-In . SVG Version: 6.00 Build 0)  -->
<svg version="1.1" id="Layer_1" xmlns="http://www.w3.org/2000/svg" xmlns:xlink="http://www.w3.org/1999/xlink" x="0px" y="0px"
	 viewBox="0 0 185.3 191" style="enable-background:new 0 0 185.3 191;" xml:space="preserve">
<style type="text/css">
	.st0{opacity:0.5;}
	.st1{fill:#333333;}
	.st2{fill:#006837;}
	.st3{fill:#7AC943;}
	.st4{fill:#F2F2F2;}
	.st5{opacity:0.25;fill:none;stroke:#000000;stroke-width:3;stroke-linecap:round;stroke-miterlimit:10;}
</style>
<g id="XMLID_1_">
	<g id="XMLID_20_" class="st0">
		<circle id="XMLID_22_" cx="92.7" cy="98.1" r="92.6"/>
	</g>
	<g id="XMLID_17_">
		<circle id="XMLID_19_" class="st1" cx="92.7" cy="93.1" r="92.6"/>
	</g>
</g>
<path id="XMLID_3_" class="st2" d="M94.1,143.4c-15.1,0.2-30.3-1.7-44.9-5.9c-5.3-1.5-11.1-3.7-13.7-8.7c-1.8-3.5-1.7-7.6-1-11.5
	c1.6-9.1,4.5-13.3,12.3-23.5c0.6-0.8,0.1-2.2-0.9-2.2c-20.5,0.5-19.5-19.8-14-28.3c5.4-8.5,16.2-20.4,26.4-16.6
	c0.3,0.1,0.3,3.2,0,3.4C37.1,65,49.4,76.7,61,76.1c6.7-8,19.7-12.3,31.7-13l0.2,0c12,0.4,25.1,4.2,32.1,12
	c11.6,0.2,23.5-11.8,1.9-26c-0.3-0.2-0.4-3.3-0.1-3.4c10.1-4.1,21.2,7.4,26.8,15.7c5.7,8.4,7.4,28.6-13.1,28.8
	c-1.1,0-1.5,1.4-0.9,2.2c8.2,10,11.2,14.1,13.1,23.1c0.8,3.8,1.1,8-0.6,11.5c-2.4,5-8.1,7.4-13.4,9.1
	C124.4,140.7,109.3,143.2,94.1,143.4z"/>
<path id="XMLID_268_" class="st3" d="M94.1,140.7c-15.1,0.2-30.3-1.7-44.9-5.9c-5.3-1.5-11.1-3.7-13.7-8.7c-1.8-3.5-1.7-7.6-1-11.5
	c1.6-9.1,4.5-13.3,12.3-23.5c0.6-0.8,0.1-2.2-0.9-2.2c-20.5,0.5-19.5-19.8-14-28.3c5.4-8.5,16-17.7,26.2-14c0.3,0.1,0.4,0.6,0.1,0.8
	C37.1,62.3,49.4,74,61,73.3c6.7-8,19.7-12.3,31.7-13l0.2,0c12,0.4,25.1,4.2,32.1,12c11.6,0.2,23.5-11.8,1.9-26
	c-0.3-0.2-0.3-0.6,0.1-0.8c10.1-4.1,21,4.8,26.7,13.1c5.7,8.4,7.4,28.6-13.1,28.8c-1.1,0-1.5,1.4-0.9,2.2
	c8.2,10,11.2,14.1,13.1,23.1c0.8,3.8,1.1,8-0.6,11.5c-2.4,5-8.1,7.4-13.4,9.1C124.4,138,109.3,140.4,94.1,140.7z"/>
<path id="XMLID_266_" class="st4" d="M115.2,98c1.3,0,2.3-0.9,2.1-1.9c-1.2-9.1-11.4-17.1-23.8-17.1s-22.6,8-23.8,17.1
	c-0.1,1,0.9,1.9,2.1,1.9H115.2z"/>
<path id="XMLID_265_" d="M108.9,98c0.9,0,1.6-0.6,1.5-1.3c-0.9-6.4-8.1-12.1-16.9-12.1s-16,5.7-16.9,12.1c-0.1,0.7,0.6,1.3,1.5,1.3
	H108.9z"/>
<path id="XMLID_264_" class="st5" d="M55.9,116.5c0,0,36.2,14,76.1,0"/>
<g id="XMLID_18_">
</g>
<g id="XMLID_21_">
</g>
<g id="XMLID_23_">
</g>
<g id="XMLID_24_">
</g>
<g id="XMLID_25_">
</g>
<g id="XMLID_26_">
</g>
<g id="XMLID_27_">
</g>
<g id="XMLID_28_">
</g>
<g id="XMLID_29_">
</g>
<g id="XMLID_30_">
</g>
<g id="XMLID_31_">
</g>
<g id="XMLID_32_">
</g>
<g id="XMLID_33_">
</g>
<g id="XMLID_34_">
</g>
<g id="XMLID_35_">
</g>
</svg>
