<?xml version="1.0" encoding="iso-8859-1"?>
<!-- Generator: Adobe Illustrator 19.0.0, SVG Export Plug-In . SVG Version: 6.00 Build 0)  -->
<svg version="1.1" xmlns="http://www.w3.org/2000/svg" xmlns:xlink="http://www.w3.org/1999/xlink" x="0px" y="0px"
	 viewBox="0 0 109.49 81.786" style="enable-background:new 0 0 109.49 81.786;" xml:space="preserve">
<g id="Layer_21">
	<path id="XMLID_198_" style="fill:#3FA9F5;" d="M55.709,81.771c-12.877,0.194-25.782-1.456-38.166-4.994
		c-4.541-1.297-9.434-3.184-11.63-7.365c-1.549-2.95-1.421-6.496-0.834-9.776c1.387-7.747,3.807-11.277,10.482-20.003
		c0.544-0.711,0.106-1.867-0.789-1.844C-2.628,38.242-1.764,20.976,2.843,13.716c4.589-7.23,13.62-15.053,22.291-11.878
		c0.288,0.105,0.333,0.487,0.083,0.663c-17.969,12.626-7.517,22.543,2.36,22.005c5.72-6.843,16.734-10.426,26.912-11.093
		l0.171-0.003c10.195,0.329,21.322,3.545,27.265,10.195c9.889,0.211,20.007-10.047,1.63-22.071C83.3,1.367,83.333,0.984,83.617,0.87
		c8.561-3.461,17.847,4.058,22.673,11.132c4.846,7.104,6.281,24.331-11.125,24.455c-0.895,0.006-1.294,1.176-0.727,1.869
		c6.961,8.501,9.496,11.948,11.139,19.645c0.696,3.259,0.941,6.798-0.51,9.798c-2.055,4.252-6.884,6.299-11.379,7.746
		C81.428,79.461,68.585,81.538,55.709,81.771z"/>
	<path id="XMLID_197_" style="fill:#F2F2F2;" d="M73.678,29.434c1.075,0,1.941,0.731,1.825,1.575
		c-1.057,7.702-9.724,14.506-20.259,14.506s-19.202-6.804-20.259-14.506c-0.116-0.844,0.75-1.575,1.825-1.575H73.678z"/>
	<path id="XMLID_196_" d="M68.299,29.434c0.761,0,1.375,0.518,1.293,1.115c-0.748,5.454-6.886,10.273-14.346,10.273
		s-13.598-4.819-14.346-10.273c-0.082-0.598,0.531-1.115,1.293-1.115H68.299z"/>
	
		<path id="XMLID_195_" style="opacity:0.25;fill:none;stroke:#000000;stroke-width:3;stroke-linecap:round;stroke-miterlimit:10;" d="
		M23.2,66.517c0,0,30.782-11.875,64.673,0"/>
</g>
<g id="Layer_1">
</g>
</svg>
