<?xml version="1.0" encoding="iso-8859-1"?>
<!-- Generator: Adobe Illustrator 19.0.0, SVG Export Plug-In . SVG Version: 6.00 Build 0)  -->
<svg version="1.1" xmlns="http://www.w3.org/2000/svg" xmlns:xlink="http://www.w3.org/1999/xlink" x="0px" y="0px"
	 viewBox="0 0 109.49 154.267" style="enable-background:new 0 0 109.49 154.267;" xml:space="preserve">
<g id="Layer_4">
	<path id="XMLID_26_" style="fill:#FF7BAC;" d="M95.165,36.457c17.407-0.123,15.971-17.351,11.125-24.455
		C101.464,4.928,92.179-2.591,83.617,0.87c-0.284,0.115-0.317,0.498-0.061,0.665c18.377,12.024,8.259,22.282-1.63,22.071
		c-5.943-6.65-17.07-9.866-27.265-10.195l-0.171,0.003c-10.178,0.667-21.193,4.25-26.912,11.093
		c-9.877,0.538-20.329-9.379-2.36-22.005c0.251-0.176,0.205-0.558-0.083-0.663C16.463-1.337,7.432,6.486,2.843,13.716
		c-4.608,7.26-5.472,24.526,11.929,24.073c0.895-0.023,1.333,1.133,0.789,1.844C8.886,48.359,6.426,51.889,5.039,59.636
		c-0.25,1.395,4.06,31.903,18.06,53.475v29.821c0,6.234,5.266,11.335,11.5,11.335s11.5-5.101,11.5-11.335v-10.046
		c3,0.889,5.588,1.381,8.731,1.381c3.351,0,6.269-0.487,9.269-1.374v10.039c0,6.234,5.266,11.335,11.5,11.335
		s11.5-5.101,11.5-11.335v-28.615c15-22.36,18.759-55.614,18.603-56.346c-1.643-7.697-4.241-11.144-11.202-19.645
		C93.933,37.633,94.269,36.463,95.165,36.457z"/>
	<path id="XMLID_22_" style="fill:#F2F2F2;" d="M73.678,29.434c1.075,0,1.941,0.731,1.825,1.575
		c-1.057,7.702-9.724,14.506-20.259,14.506s-19.202-6.804-20.259-14.506c-0.116-0.844,0.75-1.575,1.825-1.575H73.678z"/>
	<path id="XMLID_21_" d="M68.299,29.434c0.761,0,1.375,0.518,1.293,1.115c-0.748,5.454-6.886,10.273-14.346,10.273
		s-13.598-4.819-14.346-10.273c-0.082-0.598,0.531-1.115,1.293-1.115H68.299z"/>
	<path id="XMLID_20_" style="fill:none;stroke:#D15D8C;stroke-width:3;stroke-linecap:round;stroke-miterlimit:10;" d="M23.2,66.517
		c0,0,30.782-11.875,64.673,0"/>
</g>
<g id="Layer_1">
</g>
</svg>
