<?xml version="1.0" encoding="iso-8859-1"?>
<!-- Generator: Adobe Illustrator 19.0.0, SVG Export Plug-In . SVG Version: 6.00 Build 0)  -->
<svg version="1.1" xmlns="http://www.w3.org/2000/svg" xmlns:xlink="http://www.w3.org/1999/xlink" x="0px" y="0px"
	 viewBox="0 0 110.381 137.678" style="enable-background:new 0 0 110.381 137.678;" xml:space="preserve">
<g id="Layer_17">
	<g id="XMLID_87_">
		<path id="XMLID_90_" style="fill:#7AC943;" d="M55.381,137.678c-0.065,0-0.126-0.001-0.191-0.001
			c-0.065,0-0.126,0.001-0.191,0.001H55.381z"/>
		<path id="XMLID_89_" style="fill:#7AC943;" d="M106.666,85.845c-1.091-4.321-2.598-9.127-4.432-14.172
			c1.369-1.053,2.515-2.327,3.278-3.905c1.45-3,1.205-6.539,0.51-9.798c-1.643-7.697-4.178-11.144-11.139-19.645
			c-0.567-0.693-0.168-1.863,0.727-1.869c17.407-0.123,15.971-17.351,11.125-24.455C101.909,4.928,92.624-2.591,84.062,0.87
			c-0.284,0.115-0.317,0.498-0.061,0.665c18.377,12.024,8.259,22.282-1.63,22.071c-2.747-3.073-6.607-5.404-10.965-7.065
			c-5.579-6.004-11.153-9.763-16.216-9.855c-5.265,0.096-11.08,4.153-16.879,10.577c-4.12,1.786-7.734,4.187-10.288,7.243
			c-9.877,0.538-20.329-9.379-2.36-22.005c0.251-0.176,0.205-0.558-0.083-0.663C16.909-1.337,7.877,6.486,3.289,13.716
			c-4.608,7.26-5.472,24.526,11.93,24.072c0.895-0.023,1.333,1.133,0.789,1.844C9.331,48.359,6.912,51.889,5.524,59.636
			c-0.587,3.28-0.715,6.825,0.834,9.776c0.468,0.891,1.064,1.673,1.748,2.372c-1.815,5.005-3.309,9.772-4.392,14.061
			c-6.977,27.638-10.656,51.782,51.476,51.832C117.322,137.627,113.643,113.483,106.666,85.845z"/>
		<path id="XMLID_88_" style="fill:#7AC943;" d="M54.999,6.678c0.063,0,0.127,0.007,0.191,0.008
			c0.063-0.001,0.128-0.008,0.191-0.008H54.999z"/>
	</g>
	<path id="XMLID_86_" style="fill:#F2F2F2;" d="M73.623,29.505c1.075,0,1.941,0.731,1.825,1.575
		c-1.057,7.702-9.724,14.506-20.259,14.506S35.988,38.782,34.932,31.08c-0.116-0.844,0.75-1.575,1.825-1.575H73.623z"/>
	<path id="XMLID_85_" d="M68.244,29.505c0.761,0,1.375,0.518,1.293,1.115c-0.748,5.454-6.886,10.273-14.346,10.273
		S41.592,36.074,40.844,30.62c-0.082-0.598,0.531-1.115,1.293-1.115H68.244z"/>
	
		<path id="XMLID_84_" style="opacity:0.25;fill:none;stroke:#000000;stroke-width:3;stroke-linecap:round;stroke-miterlimit:10;" d="
		M36.458,75.428c0,0,17.432-11.875,36.625,0"/>
	<path id="XMLID_83_" style="fill:none;stroke:#009245;stroke-width:3;stroke-linecap:round;stroke-miterlimit:10;" d="
		M80.583,21.151c0,0-23.619,11.875-49.625,0"/>
</g>
<g id="Layer_1">
</g>
</svg>
