<?xml version="1.0" encoding="iso-8859-1"?>
<!-- Generator: Adobe Illustrator 19.0.0, SVG Export Plug-In . SVG Version: 6.00 Build 0)  -->
<svg version="1.1" xmlns="http://www.w3.org/2000/svg" xmlns:xlink="http://www.w3.org/1999/xlink" x="0px" y="0px"
	 viewBox="0 0 124.746 107.268" style="enable-background:new 0 0 124.746 107.268;" xml:space="preserve">
<g id="Layer_22">
	<path id="XMLID_194_" style="fill:#3FA9F5;" d="M60.537,107.267c-12.877,0.194-24.818-26.953-37.203-30.491
		c-4.541-1.297-20.998,3.422-23.194-0.759c-1.549-2.95,10.143-13.101,10.73-16.381c1.387-7.747,3.807-11.277,10.482-20.003
		c0.544-0.711,0.106-1.867-0.789-1.844C3.164,38.242,4.028,20.976,8.636,13.716c4.589-7.23,13.62-15.053,22.291-11.878
		c0.288,0.105,0.333,0.487,0.083,0.663c-17.969,12.626-7.517,22.543,2.36,22.005c5.72-6.843,16.734-10.426,26.912-11.093
		l0.171-0.003c10.195,0.329,21.322,3.545,27.265,10.195c9.889,0.211,20.007-10.047,1.63-22.071
		c-0.257-0.168-0.224-0.551,0.061-0.665c8.562-3.461,17.847,4.058,22.673,11.132c4.846,7.104,6.281,24.331-11.125,24.455
		c-0.895,0.006-1.294,1.176-0.727,1.869c6.961,8.501,9.496,11.948,11.139,19.645c0.696,3.259,14.722,15.047,13.272,18.046
		c-2.055,4.252-20.665-1.949-25.161-0.502C87.22,79.461,73.414,107.035,60.537,107.267z"/>
	<path id="XMLID_193_" style="fill:#F2F2F2;" d="M79.471,29.434c1.075,0,1.941,0.731,1.825,1.575
		c-1.057,7.702-9.724,14.506-20.259,14.506s-19.202-6.804-20.259-14.506c-0.116-0.844,0.75-1.575,1.825-1.575H79.471z"/>
	<path id="XMLID_192_" d="M74.091,29.434c0.761,0,1.375,0.518,1.293,1.115c-0.748,5.454-6.886,10.273-14.346,10.273
		s-13.598-4.819-14.346-10.273c-0.082-0.598,0.531-1.115,1.293-1.115H74.091z"/>
	
		<path id="XMLID_191_" style="opacity:0.25;fill:none;stroke:#000000;stroke-width:3;stroke-linecap:round;stroke-miterlimit:10;" d="
		M28.992,66.517c0,0,30.782-11.875,64.673,0"/>
</g>
<g id="Layer_1">
</g>
</svg>
