<?xml version="1.0" encoding="iso-8859-1"?>
<!-- Generator: Adobe Illustrator 19.0.0, SVG Export Plug-In . SVG Version: 6.00 Build 0)  -->
<svg version="1.1" xmlns="http://www.w3.org/2000/svg" xmlns:xlink="http://www.w3.org/1999/xlink" x="0px" y="0px"
	 viewBox="0 0 110.381 131" style="enable-background:new 0 0 110.381 131;" xml:space="preserve">
<g id="Layer_38">
	<g id="XMLID_289_">
		<path id="XMLID_309_" style="fill:#FF7BAC;" d="M55.381,131c-0.065,0-0.126-0.001-0.191-0.001c-0.065,0-0.126,0.001-0.191,0.001
			H55.381z"/>
		<path id="XMLID_308_" style="fill:#FF7BAC;" d="M106.666,79.167c-3.445-13.648-11.023-32.11-20.028-47.774
			c11.614-1.098,10.469-13.393,6.921-18.593C89.873,7.395,82.78,1.652,76.241,4.296c-0.217,0.088-0.242,0.38-0.046,0.508
			c10.841,7.093,8.697,13.377,3.681,15.799C71.642,8.643,62.835,0.147,55.19,0.008c-7.915,0.144-17.076,9.246-25.555,21.876
			c-5.839-1.782-9.377-8.349,1.998-16.341c0.192-0.135,0.157-0.426-0.063-0.507c-6.624-2.425-13.522,3.55-17.027,9.073
			c-3.47,5.468-4.151,18.357,8.573,18.384C14.387,47.915,7.079,65.837,3.714,79.167c-6.977,27.638-10.656,51.782,51.476,51.832
			C117.322,130.949,113.643,106.805,106.666,79.167z"/>
		<path id="XMLID_290_" style="fill:#FF7BAC;" d="M54.999,0c0.063,0,0.127,0.007,0.191,0.008C55.254,0.007,55.318,0,55.381,0H54.999
			z"/>
	</g>
	<path id="XMLID_288_" style="fill:#F2F2F2;" d="M73.623,38.908c1.075,0,1.941-0.731,1.825-1.575
		c-1.057-7.702-9.724-14.506-20.259-14.506s-19.202,6.804-20.259,14.506c-0.116,0.844,0.75,1.575,1.825,1.575H73.623z"/>
	<path id="XMLID_287_" d="M68.244,38.908c0.761,0,1.375-0.518,1.293-1.115c-0.748-5.454-6.886-10.273-14.346-10.273
		s-13.598,4.819-14.346,10.273c-0.082,0.598,0.531,1.115,1.293,1.115H68.244z"/>
	<path id="XMLID_286_" style="fill:none;stroke:#D15D8C;stroke-width:3;stroke-linecap:round;stroke-miterlimit:10;" d="
		M36.458,63.472c0,0,17.432,11.875,36.625,0"/>
</g>
<g id="Layer_1">
</g>
</svg>
