<?xml version="1.0" encoding="iso-8859-1"?>
<!-- Generator: Adobe Illustrator 19.0.0, SVG Export Plug-In . SVG Version: 6.00 Build 0)  -->
<svg version="1.1" xmlns="http://www.w3.org/2000/svg" xmlns:xlink="http://www.w3.org/1999/xlink" x="0px" y="0px"
	 viewBox="0 0 114.726 154.267" style="enable-background:new 0 0 114.726 154.267;" xml:space="preserve">
<g id="Layer_35">
	<path id="XMLID_344_" style="fill:#FF7BAC;" d="M114.547,105.721l-8.431-39.893c0.8-4.659,1.091-7.644,1.045-7.858
		c-1.643-7.697-4.241-11.144-11.202-19.645c-0.567-0.693-0.231-1.863,0.665-1.869c17.407-0.123,15.971-17.351,11.125-24.455
		C102.923,4.928,93.638-2.591,85.076,0.87c-0.284,0.115-0.317,0.498-0.061,0.665c18.377,12.024,8.259,22.282-1.63,22.071
		c-5.943-6.65-17.07-9.866-27.265-10.195l-0.171,0.003c-10.178,0.667-21.193,4.25-26.912,11.093
		c-9.877,0.538-20.329-9.379-2.36-22.005c0.251-0.176,0.205-0.558-0.083-0.663C17.922-1.337,8.891,6.486,4.302,13.716
		c-4.608,7.26-5.472,24.526,11.929,24.073c0.895-0.023,1.333,1.133,0.789,1.844c-6.676,8.727-9.135,12.256-10.523,20.003
		c-0.082,0.459,0.333,4.076,1.419,9.475l-7.737,36.61c-0.948,4.484,1.946,8.929,6.43,9.876c4.484,0.948,8.929-1.946,9.876-6.43
		l1.93-7.851c1.868,4.067,3.683,8.065,6.683,11.795v29.821c0,6.234,5.266,11.335,11.5,11.335s11.5-5.101,11.5-11.335v-10.046
		c3,0.889,5.588,1.381,8.731,1.381c3.351,0,6.269-0.487,9.269-1.374v10.039c0,6.234,5.266,11.335,11.5,11.335
		s11.5-5.101,11.5-11.335v-28.615c3-4.486,5.288-9.411,7.452-14.423l1.824,9.273c0.948,4.484,5.324,7.378,9.809,6.43
		C112.668,114.65,115.494,110.206,114.547,105.721z"/>
	<path id="XMLID_327_" style="fill:#F2F2F2;" d="M75.137,40.515c1.075,0,1.941-0.731,1.825-1.575
		c-1.057-7.702-9.724-14.506-20.259-14.506S37.502,31.238,36.446,38.94c-0.116,0.844,0.75,1.575,1.825,1.575H75.137z"/>
	<path id="XMLID_326_" d="M69.758,40.515c0.761,0,1.375-0.518,1.293-1.115c-0.748-5.454-6.886-10.273-14.346-10.273
		S43.106,33.945,42.358,39.4c-0.082,0.598,0.531,1.115,1.293,1.115H69.758z"/>
	<path id="XMLID_323_" style="fill:none;stroke:#D15D8C;stroke-width:3;stroke-linecap:round;stroke-miterlimit:10;" d="
		M24.659,61.239c0,0,30.782,11.875,64.673,0"/>
</g>
<g id="Layer_1">
</g>
</svg>
