<?xml version="1.0" encoding="iso-8859-1"?>
<!-- Generator: Adobe Illustrator 19.0.0, SVG Export Plug-In . SVG Version: 6.00 Build 0)  -->
<svg version="1.1" xmlns="http://www.w3.org/2000/svg" xmlns:xlink="http://www.w3.org/1999/xlink" x="0px" y="0px"
	 viewBox="0 0 124.746 107.268" style="enable-background:new 0 0 124.746 107.268;" xml:space="preserve">
<g id="Layer_33">
	<path id="XMLID_334_" style="fill:#FF7BAC;" d="M60.537,107.267C47.66,107.461,2.336,80.198,0.141,76.017
		c-1.549-2.95,10.143-13.101,10.73-16.381c1.387-7.747,3.807-11.277,10.482-20.003c0.544-0.711,0.106-1.867-0.789-1.844
		C3.164,38.242,4.028,20.976,8.636,13.716c4.589-7.23,13.62-15.053,22.291-11.878c0.288,0.105,0.333,0.487,0.083,0.663
		c-17.969,12.626-7.517,22.543,2.36,22.005c5.72-6.843,16.734-10.426,26.912-11.093l0.171-0.003
		c10.195,0.329,21.322,3.545,27.265,10.195c9.889,0.211,20.007-10.047,1.63-22.071c-0.257-0.168-0.224-0.551,0.061-0.665
		c8.562-3.461,17.847,4.058,22.673,11.132c4.846,7.104,6.281,24.331-11.125,24.455c-0.895,0.006-1.294,1.176-0.727,1.869
		c6.961,8.501,9.496,11.948,11.139,19.645c0.696,3.259,14.722,15.047,13.272,18.046C122.586,80.269,73.414,107.035,60.537,107.267z"
		/>
	<path id="XMLID_333_" style="fill:#F2F2F2;" d="M79.471,40.515c1.075,0,1.941-0.731,1.825-1.575
		c-1.057-7.702-9.724-14.506-20.259-14.506S41.836,31.238,40.779,38.94c-0.116,0.844,0.75,1.575,1.825,1.575H79.471z"/>
	<path id="XMLID_332_" d="M74.091,40.515c0.761,0,1.375-0.518,1.293-1.115c-0.748-5.454-6.886-10.273-14.346-10.273
		S47.439,33.945,46.691,39.4c-0.082,0.598,0.531,1.115,1.293,1.115H74.091z"/>
	<path id="XMLID_331_" style="fill:none;stroke:#D15D8C;stroke-width:3;stroke-linecap:round;stroke-miterlimit:10;" d="
		M28.992,61.239c0,0,30.782,11.875,64.673,0"/>
</g>
<g id="Layer_1">
</g>
</svg>
