<?xml version="1.0" encoding="iso-8859-1"?>
<!-- Generator: Adobe Illustrator 19.0.0, SVG Export Plug-In . SVG Version: 6.00 Build 0)  -->
<svg version="1.1" xmlns="http://www.w3.org/2000/svg" xmlns:xlink="http://www.w3.org/1999/xlink" x="0px" y="0px"
	 viewBox="0 0 110.377 119" style="enable-background:new 0 0 110.377 119;" xml:space="preserve">
<g id="Layer_60">
	<path id="XMLID_217_" style="fill:#3FA9F5;" d="M55.378,119c19.524,0,36.576-12.046,45.756-2.938
		c1.825,1.81,4.862,1.372,6.14-0.858c5.405-9.426,2.789-22.066-0.612-35.537C99.409,50.931,73.838,0.847,55.187,0.508
		C36.537,0.847,10.966,50.931,3.712,79.667c-3.434,13.604-6.065,26.36-0.445,35.815c1.31,2.204,4.335,2.619,6.139,0.796
		C18.533,107.05,35.701,119,55.378,119z"/>
	<path id="XMLID_137_" style="fill:#F2F2F2;" d="M73.621,39.408c1.075,0,1.941-0.731,1.825-1.575
		c-1.057-7.702-9.724-14.506-20.259-14.506s-19.202,6.804-20.259,14.506c-0.116,0.844,0.75,1.575,1.825,1.575H73.621z"/>
	<path id="XMLID_136_" d="M68.241,39.408c0.761,0,1.375-0.518,1.293-1.115c-0.748-5.454-6.886-10.273-14.346-10.273
		s-13.598,4.819-14.346,10.273c-0.082,0.598,0.531,1.115,1.293,1.115H68.241z"/>
	
		<path id="XMLID_81_" style="opacity:0.25;fill:none;stroke:#000000;stroke-width:3;stroke-linecap:round;stroke-miterlimit:10;" d="
		M36.455,63.972c0,0,17.432,11.875,36.625,0"/>
	<path id="XMLID_54_" style="fill:#FF7BAC;stroke:#0071BC;stroke-miterlimit:10;" d="M54.997,0.5c0.063,0,0.127,0.007,0.191,0.008
		C55.251,0.507,55.315,0.5,55.378,0.5H54.997z"/>
</g>
<g id="Layer_1">
</g>
</svg>
