<?xml version="1.0" encoding="iso-8859-1"?>
<!-- Generator: Adobe Illustrator 19.0.0, SVG Export Plug-In . SVG Version: 6.00 Build 0)  -->
<svg version="1.1" xmlns="http://www.w3.org/2000/svg" xmlns:xlink="http://www.w3.org/1999/xlink" x="0px" y="0px"
	 viewBox="0 0 110.382 131" style="enable-background:new 0 0 110.382 131;" xml:space="preserve">
<g id="Layer_36">
	<path id="XMLID_345_" style="fill:#FF7BAC;" d="M55.382-0.218c-18.667,0-44.388,50.333-51.667,79.167
		c-6.984,27.667-10.667,51.833,51.667,51.833H55c62.333,0,58.651-24.167,51.667-51.833C99.388,50.115,73.667-0.218,55-0.218H55.382z
		"/>
	<path id="XMLID_325_" style="fill:#F2F2F2;" d="M73.624,39.599c1.075,0,1.941-0.731,1.825-1.575
		c-1.057-7.702-9.724-14.506-20.259-14.506s-19.202,6.804-20.259,14.506c-0.116,0.844,0.75,1.575,1.825,1.575H73.624z"/>
	<path id="XMLID_324_" d="M68.245,39.599c0.761,0,1.375-0.518,1.293-1.115c-0.748-5.454-6.886-10.273-14.346-10.273
		s-13.598,4.819-14.346,10.273c-0.082,0.598,0.531,1.115,1.293,1.115H68.245z"/>
	<path id="XMLID_322_" style="fill:none;stroke:#D15D8C;stroke-width:3;stroke-linecap:round;stroke-miterlimit:10;" d="
		M36.458,64.164c0,0,17.432,11.875,36.625,0"/>
</g>
<g id="Layer_1">
</g>
</svg>
