<?xml version="1.0" encoding="iso-8859-1"?>
<!-- Generator: Adobe Illustrator 19.0.0, SVG Export Plug-In . SVG Version: 6.00 Build 0)  -->
<svg version="1.1" xmlns="http://www.w3.org/2000/svg" xmlns:xlink="http://www.w3.org/1999/xlink" x="0px" y="0px"
	 viewBox="0 0 124.746 151.746" style="enable-background:new 0 0 124.746 151.746;" xml:space="preserve">
<g id="Layer_59">
	<g id="XMLID_77_">
		<path id="XMLID_79_" style="fill:#3FA9F5;" d="M113.821,116.366c5.332-7.533,4.782-17.403,2.549-28.224
			c3.518-4.347,9.359-10.273,8.235-12.413c-1.167-2.223-6.365-1.93-11.661-1.363C104.288,45.196,80.443,0.329,62.793,0.008
			C45.008,0.331,20.931,45.887,12.444,75.033C6.73,74.135,1.175,73.516,0.105,75.728c-0.959,1.984,4.852,7.813,9.099,12.476
			c-2.446,11.885-2.847,22.614,4.357,30.359c-6.152,5.372-4.442,15.983-0.897,21.181c4.826,7.074,14.111,14.593,22.673,11.132
			c0.284-0.115,0.317-0.498,0.061-0.665c-16.367-10.709-10.13-20.01-1.584-21.769c1.372,0.3,2.805,0.577,4.311,0.826
			c6.147,5.885,16.569,8.757,26.168,9.066l0.171-0.003c9.352-0.612,19.398-3.695,25.406-9.498c1.935-0.375,3.747-0.795,5.442-1.259
			c8.233,1.843,13.982,10.738-1.576,21.67c-0.251,0.176-0.205,0.558,0.083,0.663c8.671,3.175,17.703-4.647,22.291-11.878
			C119.6,132.531,120.935,121.299,113.821,116.366z"/>
		<path id="XMLID_78_" style="fill:#3FA9F5;" d="M62.602,0c0.063,0,0.127,0.007,0.191,0.008C62.857,0.007,62.921,0,62.984,0H62.602z
			"/>
	</g>
	<path id="XMLID_76_" style="fill:#F2F2F2;" d="M81.226,38.908c1.075,0,1.941-0.731,1.825-1.575
		c-1.057-7.702-9.724-14.506-20.259-14.506s-19.202,6.804-20.259,14.506c-0.116,0.844,0.75,1.575,1.825,1.575H81.226z"/>
	<path id="XMLID_75_" d="M75.847,38.908c0.761,0,1.375-0.518,1.293-1.115c-0.748-5.454-6.886-10.273-14.346-10.273
		s-13.598,4.819-14.346,10.273c-0.082,0.598,0.531,1.115,1.293,1.115H75.847z"/>
	
		<path id="XMLID_74_" style="opacity:0.25;fill:none;stroke:#000000;stroke-width:3;stroke-linecap:round;stroke-miterlimit:10;" d="
		M44.061,63.472c0,0,17.432,11.875,36.625,0"/>
</g>
<g id="Layer_1">
</g>
</svg>
